<?xml version="1.0" encoding="UTF-8" standalone="no"?>
<!DOCTYPE svg PUBLIC "-//W3C//DTD SVG 1.1//EN"
 "http://www.w3.org/Graphics/SVG/1.1/DTD/svg11.dtd">
<!-- Generated by graphviz version 2.46.0 (20210119.1425)
 -->
<!-- Title: dependencies Pages: 1 -->
<svg width="2139pt" height="211pt"
 viewBox="0.00 0.00 2139.00 211.00" xmlns="http://www.w3.org/2000/svg" xmlns:xlink="http://www.w3.org/1999/xlink">
<g id="graph0" class="graph" transform="scale(1 1) rotate(0) translate(4 207)">
<title>dependencies</title>
<polygon fill="white" stroke="transparent" points="-4,4 -4,-207 2135,-207 2135,4 -4,4"/>
<text text-anchor="start" x="1044.51" y="-42.4" font-family="sans-serif" font-weight="bold" font-size="14.00">Legend</text>
<polygon fill="#ffffb3" stroke="transparent" points="831.5,-10 831.5,-30 851.5,-30 851.5,-10 831.5,-10"/>
<text text-anchor="start" x="855.13" y="-15.4" font-family="sans-serif" font-size="14.00"> &#160;Declarations</text>
<polygon fill="#8dd3c7" stroke="transparent" points="944.5,-10 944.5,-30 964.5,-30 964.5,-10 944.5,-10"/>
<text text-anchor="start" x="968.23" y="-15.4" font-family="sans-serif" font-size="14.00"> &#160;Module</text>
<polygon fill="#80b1d3" stroke="transparent" points="1030.5,-10 1030.5,-30 1050.5,-30 1050.5,-10 1030.5,-10"/>
<text text-anchor="start" x="1054.28" y="-15.4" font-family="sans-serif" font-size="14.00"> &#160;Bootstrap</text>
<polygon fill="#fdb462" stroke="transparent" points="1127.5,-10 1127.5,-30 1147.5,-30 1147.5,-10 1127.5,-10"/>
<text text-anchor="start" x="1151.17" y="-15.4" font-family="sans-serif" font-size="14.00"> &#160;Providers</text>
<polygon fill="#fb8072" stroke="transparent" points="1223.5,-10 1223.5,-30 1243.5,-30 1243.5,-10 1223.5,-10"/>
<text text-anchor="start" x="1247.23" y="-15.4" font-family="sans-serif" font-size="14.00"> &#160;Exports</text>
<g id="clust1" class="cluster">
<title>cluster_TamuLibModule</title>
<polygon fill="none" stroke="black" stroke-dasharray="1,5" points="8,-70 8,-195 2123,-195 2123,-70 8,-70"/>
</g>
<g id="clust2" class="cluster">
<title>cluster_TamuLibModule_declarations</title>
<polygon fill="none" stroke="black" points="16,-78 16,-130 2115,-130 2115,-78 16,-78"/>
</g>
<!-- TamuFooterComponent -->
<g id="node1" class="node">
<title>TamuFooterComponent</title>
<polygon fill="#ffffb3" stroke="black" points="2107.04,-122 1956.96,-122 1956.96,-86 2107.04,-86 2107.04,-122"/>
<text text-anchor="middle" x="2032" y="-99.8" font-family="Times,serif" font-size="14.00">TamuFooterComponent</text>
</g>
<!-- TamuLibModule -->
<g id="node14" class="node">
<title>TamuLibModule</title>
<polygon fill="#8dd3c7" stroke="black" points="1117.65,-187 1114.65,-191 1093.65,-191 1090.65,-187 1006.35,-187 1006.35,-151 1117.65,-151 1117.65,-187"/>
<text text-anchor="middle" x="1062" y="-164.8" font-family="Times,serif" font-size="14.00">TamuLibModule</text>
</g>
<!-- TamuFooterComponent&#45;&gt;TamuLibModule -->
<g id="edge1" class="edge">
<title>TamuFooterComponent&#45;&gt;TamuLibModule</title>
<path fill="none" stroke="black" d="M2032,-122.09C2032,-145.13 2032,-182 2032,-182 2032,-182 1127.99,-182 1127.99,-182"/>
<polygon fill="black" stroke="black" points="1127.99,-178.5 1117.99,-182 1127.99,-185.5 1127.99,-178.5"/>
</g>
<!-- TamuHeaderComponent -->
<g id="node2" class="node">
<title>TamuHeaderComponent</title>
<polygon fill="#ffffb3" stroke="black" points="1939.4,-122 1784.6,-122 1784.6,-86 1939.4,-86 1939.4,-122"/>
<text text-anchor="middle" x="1862" y="-99.8" font-family="Times,serif" font-size="14.00">TamuHeaderComponent</text>
</g>
<!-- TamuHeaderComponent&#45;&gt;TamuLibModule -->
<g id="edge2" class="edge">
<title>TamuHeaderComponent&#45;&gt;TamuLibModule</title>
<path fill="none" stroke="black" d="M1862,-122.04C1862,-143.66 1862,-177 1862,-177 1862,-177 1127.94,-177 1127.94,-177"/>
<polygon fill="black" stroke="black" points="1127.94,-173.5 1117.94,-177 1127.94,-180.5 1127.94,-173.5"/>
</g>
<!-- TamuItWorksComponent -->
<g id="node3" class="node">
<title>TamuItWorksComponent</title>
<polygon fill="#ffffb3" stroke="black" points="1766.86,-122 1607.14,-122 1607.14,-86 1766.86,-86 1766.86,-122"/>
<text text-anchor="middle" x="1687" y="-99.8" font-family="Times,serif" font-size="14.00">TamuItWorksComponent</text>
</g>
<!-- TamuItWorksComponent&#45;&gt;TamuLibModule -->
<g id="edge3" class="edge">
<title>TamuItWorksComponent&#45;&gt;TamuLibModule</title>
<path fill="none" stroke="black" d="M1687,-122.22C1687,-142.37 1687,-172 1687,-172 1687,-172 1127.74,-172 1127.74,-172"/>
<polygon fill="black" stroke="black" points="1127.74,-168.5 1117.74,-172 1127.74,-175.5 1127.74,-168.5"/>
</g>
<!-- TamuNavListComponent -->
<g id="node4" class="node">
<title>TamuNavListComponent</title>
<polygon fill="#ffffb3" stroke="black" points="1589.59,-122 1430.41,-122 1430.41,-86 1589.59,-86 1589.59,-122"/>
<text text-anchor="middle" x="1510" y="-99.8" font-family="Times,serif" font-size="14.00">TamuNavListComponent</text>
</g>
<!-- TamuNavListComponent&#45;&gt;TamuLibModule -->
<g id="edge4" class="edge">
<title>TamuNavListComponent&#45;&gt;TamuLibModule</title>
<path fill="none" stroke="black" d="M1510,-122.22C1510,-140.83 1510,-167 1510,-167 1510,-167 1127.83,-167 1127.83,-167"/>
<polygon fill="black" stroke="black" points="1127.83,-163.5 1117.83,-167 1127.83,-170.5 1127.83,-163.5"/>
</g>
<!-- TlAlertComponent -->
<g id="node5" class="node">
<title>TlAlertComponent</title>
<polygon fill="#ffffb3" stroke="black" points="1412.04,-122 1289.96,-122 1289.96,-86 1412.04,-86 1412.04,-122"/>
<text text-anchor="middle" x="1351" y="-99.8" font-family="Times,serif" font-size="14.00">TlAlertComponent</text>
</g>
<!-- TlAlertComponent&#45;&gt;TamuLibModule -->
<g id="edge5" class="edge">
<title>TlAlertComponent&#45;&gt;TamuLibModule</title>
<path fill="none" stroke="black" d="M1351,-122.03C1351,-139.06 1351,-162 1351,-162 1351,-162 1127.72,-162 1127.72,-162"/>
<polygon fill="black" stroke="black" points="1127.72,-158.5 1117.72,-162 1127.72,-165.5 1127.72,-158.5"/>
</g>
<!-- TlButtonComponent -->
<g id="node6" class="node">
<title>TlButtonComponent</title>
<polygon fill="#ffffb3" stroke="black" points="1271.89,-122 1140.11,-122 1140.11,-86 1271.89,-86 1271.89,-122"/>
<text text-anchor="middle" x="1206" y="-99.8" font-family="Times,serif" font-size="14.00">TlButtonComponent</text>
</g>
<!-- TlButtonComponent&#45;&gt;TamuLibModule -->
<g id="edge6" class="edge">
<title>TlButtonComponent&#45;&gt;TamuLibModule</title>
<path fill="none" stroke="black" d="M1206,-122.24C1206,-137.57 1206,-157 1206,-157 1206,-157 1127.67,-157 1127.67,-157"/>
<polygon fill="black" stroke="black" points="1127.67,-153.5 1117.67,-157 1127.67,-160.5 1127.67,-153.5"/>
</g>
<!-- TlCardComponent -->
<g id="node7" class="node">
<title>TlCardComponent</title>
<polygon fill="#ffffb3" stroke="black" points="1122.49,-122 1001.51,-122 1001.51,-86 1122.49,-86 1122.49,-122"/>
<text text-anchor="middle" x="1062" y="-99.8" font-family="Times,serif" font-size="14.00">TlCardComponent</text>
</g>
<!-- TlCardComponent&#45;&gt;TamuLibModule -->
<g id="edge7" class="edge">
<title>TlCardComponent&#45;&gt;TamuLibModule</title>
<path fill="none" stroke="black" d="M1062,-122.11C1062,-122.11 1062,-140.99 1062,-140.99"/>
<polygon fill="black" stroke="black" points="1058.5,-140.99 1062,-150.99 1065.5,-140.99 1058.5,-140.99"/>
</g>
<!-- TlDropDownComponent -->
<g id="node8" class="node">
<title>TlDropDownComponent</title>
<polygon fill="#ffffb3" stroke="black" points="983.26,-122 826.74,-122 826.74,-86 983.26,-86 983.26,-122"/>
<text text-anchor="middle" x="905" y="-99.8" font-family="Times,serif" font-size="14.00">TlDropDownComponent</text>
</g>
<!-- TlDropDownComponent&#45;&gt;TamuLibModule -->
<g id="edge8" class="edge">
<title>TlDropDownComponent&#45;&gt;TamuLibModule</title>
<path fill="none" stroke="black" d="M905,-122.24C905,-137.57 905,-157 905,-157 905,-157 996.21,-157 996.21,-157"/>
<polygon fill="black" stroke="black" points="996.21,-160.5 1006.21,-157 996.21,-153.5 996.21,-160.5"/>
</g>
<!-- TlIconComponent -->
<g id="node9" class="node">
<title>TlIconComponent</title>
<polygon fill="#ffffb3" stroke="black" points="808.15,-122 689.85,-122 689.85,-86 808.15,-86 808.15,-122"/>
<text text-anchor="middle" x="749" y="-99.8" font-family="Times,serif" font-size="14.00">TlIconComponent</text>
</g>
<!-- TlIconComponent&#45;&gt;TamuLibModule -->
<g id="edge9" class="edge">
<title>TlIconComponent&#45;&gt;TamuLibModule</title>
<path fill="none" stroke="black" d="M749,-122.03C749,-139.06 749,-162 749,-162 749,-162 996.04,-162 996.04,-162"/>
<polygon fill="black" stroke="black" points="996.04,-165.5 1006.04,-162 996.04,-158.5 996.04,-165.5"/>
</g>
<!-- TlMegaMenuComponent -->
<g id="node10" class="node">
<title>TlMegaMenuComponent</title>
<polygon fill="#ffffb3" stroke="black" points="672.31,-122 513.69,-122 513.69,-86 672.31,-86 672.31,-122"/>
<text text-anchor="middle" x="593" y="-99.8" font-family="Times,serif" font-size="14.00">TlMegaMenuComponent</text>
</g>
<!-- TlMegaMenuComponent&#45;&gt;TamuLibModule -->
<g id="edge10" class="edge">
<title>TlMegaMenuComponent&#45;&gt;TamuLibModule</title>
<path fill="none" stroke="black" d="M593,-122.22C593,-140.83 593,-167 593,-167 593,-167 995.89,-167 995.89,-167"/>
<polygon fill="black" stroke="black" points="995.89,-170.5 1005.89,-167 995.89,-163.5 995.89,-170.5"/>
</g>
<!-- TlMegaMenuSectionComponent -->
<g id="node11" class="node">
<title>TlMegaMenuSectionComponent</title>
<polygon fill="#ffffb3" stroke="black" points="496.3,-122 295.7,-122 295.7,-86 496.3,-86 496.3,-122"/>
<text text-anchor="middle" x="396" y="-99.8" font-family="Times,serif" font-size="14.00">TlMegaMenuSectionComponent</text>
</g>
<!-- TlMegaMenuSectionComponent&#45;&gt;TamuLibModule -->
<g id="edge11" class="edge">
<title>TlMegaMenuSectionComponent&#45;&gt;TamuLibModule</title>
<path fill="none" stroke="black" d="M396,-122.22C396,-142.37 396,-172 396,-172 396,-172 996.08,-172 996.08,-172"/>
<polygon fill="black" stroke="black" points="996.08,-175.5 1006.08,-172 996.08,-168.5 996.08,-175.5"/>
</g>
<!-- TlTabComponent -->
<g id="node12" class="node">
<title>TlTabComponent</title>
<polygon fill="#ffffb3" stroke="black" points="277.54,-122 162.46,-122 162.46,-86 277.54,-86 277.54,-122"/>
<text text-anchor="middle" x="220" y="-99.8" font-family="Times,serif" font-size="14.00">TlTabComponent</text>
</g>
<!-- TlTabComponent&#45;&gt;TamuLibModule -->
<g id="edge12" class="edge">
<title>TlTabComponent&#45;&gt;TamuLibModule</title>
<path fill="none" stroke="black" d="M220,-122.04C220,-143.66 220,-177 220,-177 220,-177 996.1,-177 996.1,-177"/>
<polygon fill="black" stroke="black" points="996.1,-180.5 1006.1,-177 996.1,-173.5 996.1,-180.5"/>
</g>
<!-- TlTabsComponent -->
<g id="node13" class="node">
<title>TlTabsComponent</title>
<polygon fill="#ffffb3" stroke="black" points="144.49,-122 23.51,-122 23.51,-86 144.49,-86 144.49,-122"/>
<text text-anchor="middle" x="84" y="-99.8" font-family="Times,serif" font-size="14.00">TlTabsComponent</text>
</g>
<!-- TlTabsComponent&#45;&gt;TamuLibModule -->
<g id="edge13" class="edge">
<title>TlTabsComponent&#45;&gt;TamuLibModule</title>
<path fill="none" stroke="black" d="M84,-122.09C84,-145.13 84,-182 84,-182 84,-182 996.26,-182 996.26,-182"/>
<polygon fill="black" stroke="black" points="996.26,-185.5 1006.26,-182 996.26,-178.5 996.26,-185.5"/>
</g>
</g>
</svg>
