<?xml version="1.0" encoding="UTF-8" standalone="no"?>
<!DOCTYPE svg PUBLIC "-//W3C//DTD SVG 1.1//EN"
 "http://www.w3.org/Graphics/SVG/1.1/DTD/svg11.dtd">
<!-- Generated by graphviz version 2.47.0 (20210316.0004)
 -->
<!-- Title: dependencies Pages: 1 -->
<svg width="3051pt" height="284pt"
 viewBox="0.00 0.00 3051.00 284.00" xmlns="http://www.w3.org/2000/svg" xmlns:xlink="http://www.w3.org/1999/xlink">
<g id="graph0" class="graph" transform="scale(1 1) rotate(0) translate(4 280)">
<title>dependencies</title>
<polygon fill="white" stroke="transparent" points="-4,4 -4,-280 3047,-280 3047,4 -4,4"/>
<text text-anchor="start" x="1500.51" y="-42.4" font-family="Times-12" font-weight="bold" font-size="14.00">Legend</text>
<polygon fill="#ffffb3" stroke="transparent" points="1287.5,-10 1287.5,-30 1307.5,-30 1307.5,-10 1287.5,-10"/>
<text text-anchor="start" x="1311.13" y="-15.4" font-family="Times-12" font-size="14.00"> &#160;Declarations</text>
<polygon fill="#8dd3c7" stroke="transparent" points="1400.5,-10 1400.5,-30 1420.5,-30 1420.5,-10 1400.5,-10"/>
<text text-anchor="start" x="1424.23" y="-15.4" font-family="Times-12" font-size="14.00"> &#160;Module</text>
<polygon fill="#80b1d3" stroke="transparent" points="1486.5,-10 1486.5,-30 1506.5,-30 1506.5,-10 1486.5,-10"/>
<text text-anchor="start" x="1510.28" y="-15.4" font-family="Times-12" font-size="14.00"> &#160;Bootstrap</text>
<polygon fill="#fdb462" stroke="transparent" points="1583.5,-10 1583.5,-30 1603.5,-30 1603.5,-10 1583.5,-10"/>
<text text-anchor="start" x="1607.17" y="-15.4" font-family="Times-12" font-size="14.00"> &#160;Providers</text>
<polygon fill="#fb8072" stroke="transparent" points="1679.5,-10 1679.5,-30 1699.5,-30 1699.5,-10 1679.5,-10"/>
<text text-anchor="start" x="1703.23" y="-15.4" font-family="Times-12" font-size="14.00"> &#160;Exports</text>
<g id="clust7" class="cluster">
<title>cluster_TLSharedModule</title>
<polygon fill="none" stroke="black" stroke-dasharray="1,5" points="8,-70 8,-268 3035,-268 3035,-70 8,-70"/>
</g>
<g id="clust8" class="cluster">
<title>cluster_TLSharedModule_declarations</title>
<polygon fill="none" stroke="black" points="56,-78 56,-130 3002,-130 3002,-78 56,-78"/>
</g>
<g id="clust28" class="cluster">
<title>cluster_TLSharedModule_exports</title>
<polygon fill="none" stroke="black" points="16,-208 16,-260 3027,-260 3027,-208 16,-208"/>
</g>
<!-- TlAlertComponent -->
<g id="node1" class="node">
<title>TlAlertComponent</title>
<polygon fill="#ffffb3" stroke="black" points="2994.04,-122 2871.96,-122 2871.96,-86 2994.04,-86 2994.04,-122"/>
<text text-anchor="middle" x="2933" y="-99.8" font-family="Times,serif" font-size="14.00">TlAlertComponent</text>
</g>
<!-- TLSharedModule -->
<g id="node19" class="node">
<title>TLSharedModule</title>
<polygon fill="#8dd3c7" stroke="black" points="1499.53,-187 1496.53,-191 1475.53,-191 1472.53,-187 1384.47,-187 1384.47,-151 1499.53,-151 1499.53,-187"/>
<text text-anchor="middle" x="1442" y="-164.8" font-family="Times,serif" font-size="14.00">TLSharedModule</text>
</g>
<!-- TlAlertComponent&#45;&gt;TLSharedModule -->
<g id="edge1" class="edge">
<title>TlAlertComponent&#45;&gt;TLSharedModule</title>
<path fill="none" stroke="black" d="M2883.84,-122.11C2883.84,-141.34 2883.84,-169 2883.84,-169 2883.84,-169 1509.86,-169 1509.86,-169"/>
<polygon fill="black" stroke="black" points="1509.86,-165.5 1499.86,-169 1509.86,-172.5 1509.86,-165.5"/>
</g>
<!-- TlButtonComponent -->
<g id="node2" class="node">
<title>TlButtonComponent</title>
<polygon fill="#ffffb3" stroke="black" points="2853.89,-122 2722.11,-122 2722.11,-86 2853.89,-86 2853.89,-122"/>
<text text-anchor="middle" x="2788" y="-99.8" font-family="Times,serif" font-size="14.00">TlButtonComponent</text>
</g>
<!-- TlButtonComponent&#45;&gt;TLSharedModule -->
<g id="edge2" class="edge">
<title>TlButtonComponent&#45;&gt;TLSharedModule</title>
<path fill="none" stroke="black" d="M2730.68,-122.22C2730.68,-140.83 2730.68,-167 2730.68,-167 2730.68,-167 1509.88,-167 1509.88,-167"/>
<polygon fill="black" stroke="black" points="1509.88,-163.5 1499.88,-167 1509.88,-170.5 1509.88,-163.5"/>
</g>
<!-- TlCardComponent -->
<g id="node3" class="node">
<title>TlCardComponent</title>
<polygon fill="#ffffb3" stroke="black" points="2704.49,-122 2583.51,-122 2583.51,-86 2704.49,-86 2704.49,-122"/>
<text text-anchor="middle" x="2644" y="-99.8" font-family="Times,serif" font-size="14.00">TlCardComponent</text>
</g>
<!-- TlCardComponent&#45;&gt;TLSharedModule -->
<g id="edge3" class="edge">
<title>TlCardComponent&#45;&gt;TLSharedModule</title>
<path fill="none" stroke="black" d="M2590.13,-122.3C2590.13,-140.27 2590.13,-165 2590.13,-165 2590.13,-165 1509.72,-165 1509.72,-165"/>
<polygon fill="black" stroke="black" points="1509.72,-161.5 1499.72,-165 1509.72,-168.5 1509.72,-161.5"/>
</g>
<!-- TlDropDownComponent -->
<g id="node4" class="node">
<title>TlDropDownComponent</title>
<polygon fill="#ffffb3" stroke="black" points="2565.26,-122 2408.74,-122 2408.74,-86 2565.26,-86 2565.26,-122"/>
<text text-anchor="middle" x="2487" y="-99.8" font-family="Times,serif" font-size="14.00">TlDropDownComponent</text>
</g>
<!-- TlDropDownComponent&#45;&gt;TLSharedModule -->
<g id="edge4" class="edge">
<title>TlDropDownComponent&#45;&gt;TLSharedModule</title>
<path fill="none" stroke="black" d="M2413.75,-122.02C2413.75,-139.37 2413.75,-163 2413.75,-163 2413.75,-163 1509.88,-163 1509.88,-163"/>
<polygon fill="black" stroke="black" points="1509.88,-159.5 1499.88,-163 1509.88,-166.5 1509.88,-159.5"/>
</g>
<!-- TlDropDownMenuComponent -->
<g id="node5" class="node">
<title>TlDropDownMenuComponent</title>
<polygon fill="#ffffb3" stroke="black" points="2390.92,-122 2201.08,-122 2201.08,-86 2390.92,-86 2390.92,-122"/>
<text text-anchor="middle" x="2296" y="-99.8" font-family="Times,serif" font-size="14.00">TlDropDownMenuComponent</text>
</g>
<!-- TlDropDownMenuComponent&#45;&gt;TLSharedModule -->
<g id="edge5" class="edge">
<title>TlDropDownMenuComponent&#45;&gt;TLSharedModule</title>
<path fill="none" stroke="black" d="M2329.65,-122.04C2329.65,-138.73 2329.65,-161 2329.65,-161 2329.65,-161 1509.56,-161 1509.56,-161"/>
<polygon fill="black" stroke="black" points="1509.56,-157.5 1499.56,-161 1509.56,-164.5 1509.56,-157.5"/>
</g>
<!-- TlDropDownMenuSectionComponent -->
<g id="node6" class="node">
<title>TlDropDownMenuSectionComponent</title>
<polygon fill="#ffffb3" stroke="black" points="2183.91,-122 1952.09,-122 1952.09,-86 2183.91,-86 2183.91,-122"/>
<text text-anchor="middle" x="2068" y="-99.8" font-family="Times,serif" font-size="14.00">TlDropDownMenuSectionComponent</text>
</g>
<!-- TlDropDownMenuSectionComponent&#45;&gt;TLSharedModule -->
<g id="edge6" class="edge">
<title>TlDropDownMenuSectionComponent&#45;&gt;TLSharedModule</title>
<path fill="none" stroke="black" d="M2107.32,-122.01C2107.32,-138.05 2107.32,-159 2107.32,-159 2107.32,-159 1509.59,-159 1509.59,-159"/>
<polygon fill="black" stroke="black" points="1509.59,-155.5 1499.59,-159 1509.59,-162.5 1509.59,-155.5"/>
</g>
<!-- TlFooterComponent -->
<g id="node7" class="node">
<title>TlFooterComponent</title>
<polygon fill="#ffffb3" stroke="black" points="1934.32,-122 1803.68,-122 1803.68,-86 1934.32,-86 1934.32,-122"/>
<text text-anchor="middle" x="1869" y="-99.8" font-family="Times,serif" font-size="14.00">TlFooterComponent</text>
</g>
<!-- TlFooterComponent&#45;&gt;TLSharedModule -->
<g id="edge7" class="edge">
<title>TlFooterComponent&#45;&gt;TLSharedModule</title>
<path fill="none" stroke="black" d="M1890.72,-122.24C1890.72,-137.57 1890.72,-157 1890.72,-157 1890.72,-157 1509.74,-157 1509.74,-157"/>
<polygon fill="black" stroke="black" points="1509.74,-153.5 1499.74,-157 1509.74,-160.5 1509.74,-153.5"/>
</g>
<!-- TlHeaderComponent -->
<g id="node8" class="node">
<title>TlHeaderComponent</title>
<polygon fill="#ffffb3" stroke="black" points="1786.19,-122 1651.81,-122 1651.81,-86 1786.19,-86 1786.19,-122"/>
<text text-anchor="middle" x="1719" y="-99.8" font-family="Times,serif" font-size="14.00">TlHeaderComponent</text>
</g>
<!-- TlHeaderComponent&#45;&gt;TLSharedModule -->
<g id="edge8" class="edge">
<title>TlHeaderComponent&#45;&gt;TLSharedModule</title>
<path fill="none" stroke="black" d="M1696.22,-122.12C1696.22,-136.78 1696.22,-155 1696.22,-155 1696.22,-155 1509.69,-155 1509.69,-155"/>
<polygon fill="black" stroke="black" points="1509.69,-151.5 1499.69,-155 1509.69,-158.5 1509.69,-151.5"/>
</g>
<!-- TlIconComponent -->
<g id="node9" class="node">
<title>TlIconComponent</title>
<polygon fill="#ffffb3" stroke="black" points="1634.15,-122 1515.85,-122 1515.85,-86 1634.15,-86 1634.15,-122"/>
<text text-anchor="middle" x="1575" y="-99.8" font-family="Times,serif" font-size="14.00">TlIconComponent</text>
</g>
<!-- TlIconComponent&#45;&gt;TLSharedModule -->
<g id="edge9" class="edge">
<title>TlIconComponent&#45;&gt;TLSharedModule</title>
<path fill="none" stroke="black" d="M1572.38,-122.25C1572.38,-136.18 1572.38,-153 1572.38,-153 1572.38,-153 1509.56,-153 1509.56,-153"/>
<polygon fill="black" stroke="black" points="1509.56,-149.5 1499.56,-153 1509.56,-156.5 1509.56,-149.5"/>
</g>
<!-- TlItWorksComponent -->
<g id="node10" class="node">
<title>TlItWorksComponent</title>
<polygon fill="#ffffb3" stroke="black" points="1497.65,-122 1358.35,-122 1358.35,-86 1497.65,-86 1497.65,-122"/>
<text text-anchor="middle" x="1428" y="-99.8" font-family="Times,serif" font-size="14.00">TlItWorksComponent</text>
</g>
<!-- TlItWorksComponent&#45;&gt;TLSharedModule -->
<g id="edge10" class="edge">
<title>TlItWorksComponent&#45;&gt;TLSharedModule</title>
<path fill="none" stroke="black" d="M1441.03,-122.11C1441.03,-122.11 1441.03,-140.99 1441.03,-140.99"/>
<polygon fill="black" stroke="black" points="1437.53,-140.99 1441.03,-150.99 1444.53,-140.99 1437.53,-140.99"/>
</g>
<!-- TlMegaMenuComponent -->
<g id="node11" class="node">
<title>TlMegaMenuComponent</title>
<polygon fill="#ffffb3" stroke="black" points="1340.31,-122 1181.69,-122 1181.69,-86 1340.31,-86 1340.31,-122"/>
<text text-anchor="middle" x="1261" y="-99.8" font-family="Times,serif" font-size="14.00">TlMegaMenuComponent</text>
</g>
<!-- TlMegaMenuComponent&#45;&gt;TLSharedModule -->
<g id="edge11" class="edge">
<title>TlMegaMenuComponent&#45;&gt;TLSharedModule</title>
<path fill="none" stroke="black" d="M1334.03,-122.05C1334.03,-136.37 1334.03,-154 1334.03,-154 1334.03,-154 1374.22,-154 1374.22,-154"/>
<polygon fill="black" stroke="black" points="1374.22,-157.5 1384.22,-154 1374.22,-150.5 1374.22,-157.5"/>
</g>
<!-- TlMegaMenuSectionComponent -->
<g id="node12" class="node">
<title>TlMegaMenuSectionComponent</title>
<polygon fill="#ffffb3" stroke="black" points="1164.3,-122 963.7,-122 963.7,-86 1164.3,-86 1164.3,-122"/>
<text text-anchor="middle" x="1064" y="-99.8" font-family="Times,serif" font-size="14.00">TlMegaMenuSectionComponent</text>
</g>
<!-- TlMegaMenuSectionComponent&#45;&gt;TLSharedModule -->
<g id="edge12" class="edge">
<title>TlMegaMenuSectionComponent&#45;&gt;TLSharedModule</title>
<path fill="none" stroke="black" d="M1156.03,-122.19C1156.03,-137.18 1156.03,-156 1156.03,-156 1156.03,-156 1374.13,-156 1374.13,-156"/>
<polygon fill="black" stroke="black" points="1374.13,-159.5 1384.13,-156 1374.13,-152.5 1374.13,-159.5"/>
</g>
<!-- TlModalComponent -->
<g id="node13" class="node">
<title>TlModalComponent</title>
<polygon fill="#ffffb3" stroke="black" points="946.33,-122 815.67,-122 815.67,-86 946.33,-86 946.33,-122"/>
<text text-anchor="middle" x="881" y="-99.8" font-family="Times,serif" font-size="14.00">TlModalComponent</text>
</g>
<!-- TlModalComponent&#45;&gt;TLSharedModule -->
<g id="edge13" class="edge">
<title>TlModalComponent&#45;&gt;TLSharedModule</title>
<path fill="none" stroke="black" d="M935.01,-122.28C935.01,-137.95 935.01,-158 935.01,-158 935.01,-158 1374.33,-158 1374.33,-158"/>
<polygon fill="black" stroke="black" points="1374.33,-161.5 1384.33,-158 1374.33,-154.5 1374.33,-161.5"/>
</g>
<!-- TlNavListComponent -->
<g id="node14" class="node">
<title>TlNavListComponent</title>
<polygon fill="#ffffb3" stroke="black" points="797.38,-122 658.62,-122 658.62,-86 797.38,-86 797.38,-122"/>
<text text-anchor="middle" x="728" y="-99.8" font-family="Times,serif" font-size="14.00">TlNavListComponent</text>
</g>
<!-- TlNavListComponent&#45;&gt;TLSharedModule -->
<g id="edge14" class="edge">
<title>TlNavListComponent&#45;&gt;TLSharedModule</title>
<path fill="none" stroke="black" d="M783.14,-122.03C783.14,-138.4 783.14,-160 783.14,-160 783.14,-160 1374.4,-160 1374.4,-160"/>
<polygon fill="black" stroke="black" points="1374.4,-163.5 1384.4,-160 1374.4,-156.5 1374.4,-163.5"/>
</g>
<!-- TlTabComponent -->
<g id="node15" class="node">
<title>TlTabComponent</title>
<polygon fill="#ffffb3" stroke="black" points="640.54,-122 525.46,-122 525.46,-86 640.54,-86 640.54,-122"/>
<text text-anchor="middle" x="583" y="-99.8" font-family="Times,serif" font-size="14.00">TlTabComponent</text>
</g>
<!-- TlTabComponent&#45;&gt;TLSharedModule -->
<g id="edge15" class="edge">
<title>TlTabComponent&#45;&gt;TLSharedModule</title>
<path fill="none" stroke="black" d="M636.29,-122.03C636.29,-139.06 636.29,-162 636.29,-162 636.29,-162 1374.38,-162 1374.38,-162"/>
<polygon fill="black" stroke="black" points="1374.38,-165.5 1384.38,-162 1374.38,-158.5 1374.38,-165.5"/>
</g>
<!-- TlTabsComponent -->
<g id="node16" class="node">
<title>TlTabsComponent</title>
<polygon fill="#ffffb3" stroke="black" points="507.49,-122 386.51,-122 386.51,-86 507.49,-86 507.49,-122"/>
<text text-anchor="middle" x="447" y="-99.8" font-family="Times,serif" font-size="14.00">TlTabsComponent</text>
</g>
<!-- TlTabsComponent&#45;&gt;TLSharedModule -->
<g id="edge16" class="edge">
<title>TlTabsComponent&#45;&gt;TLSharedModule</title>
<path fill="none" stroke="black" d="M500.99,-122C500.99,-139.68 500.99,-164 500.99,-164 500.99,-164 1374.2,-164 1374.2,-164"/>
<polygon fill="black" stroke="black" points="1374.2,-167.5 1384.2,-164 1374.2,-160.5 1374.2,-167.5"/>
</g>
<!-- TlThemesComponent -->
<g id="node17" class="node">
<title>TlThemesComponent</title>
<polygon fill="#ffffb3" stroke="black" points="368.09,-122 229.91,-122 229.91,-86 368.09,-86 368.09,-122"/>
<text text-anchor="middle" x="299" y="-99.8" font-family="Times,serif" font-size="14.00">TlThemesComponent</text>
</g>
<!-- TlThemesComponent&#45;&gt;TLSharedModule -->
<g id="edge17" class="edge">
<title>TlThemesComponent&#45;&gt;TLSharedModule</title>
<path fill="none" stroke="black" d="M359.9,-122.27C359.9,-140.56 359.9,-166 359.9,-166 359.9,-166 1374.2,-166 1374.2,-166"/>
<polygon fill="black" stroke="black" points="1374.2,-169.5 1384.2,-166 1374.2,-162.5 1374.2,-169.5"/>
</g>
<!-- TlWysiwygComponent -->
<g id="node18" class="node">
<title>TlWysiwygComponent</title>
<polygon fill="#ffffb3" stroke="black" points="211.93,-122 64.07,-122 64.07,-86 211.93,-86 211.93,-122"/>
<text text-anchor="middle" x="138" y="-99.8" font-family="Times,serif" font-size="14.00">TlWysiwygComponent</text>
</g>
<!-- TlWysiwygComponent&#45;&gt;TLSharedModule -->
<g id="edge18" class="edge">
<title>TlWysiwygComponent&#45;&gt;TLSharedModule</title>
<path fill="none" stroke="black" d="M201.96,-122.17C201.96,-141.09 201.96,-168 201.96,-168 201.96,-168 1374.27,-168 1374.27,-168"/>
<polygon fill="black" stroke="black" points="1374.27,-171.5 1384.27,-168 1374.27,-164.5 1374.27,-171.5"/>
</g>
<!-- TlAlertComponent  -->
<g id="node20" class="node">
<title>TlAlertComponent </title>
<polygon fill="#fb8072" stroke="black" points="3019.04,-252 2892.96,-252 2892.96,-216 3019.04,-216 3019.04,-252"/>
<text text-anchor="middle" x="2956" y="-229.8" font-family="Times,serif" font-size="14.00">TlAlertComponent </text>
</g>
<!-- TLSharedModule&#45;&gt;TlAlertComponent  -->
<g id="edge19" class="edge">
<title>TLSharedModule&#45;&gt;TlAlertComponent </title>
<path fill="none" stroke="black" stroke-dasharray="5,2" d="M1499.95,-170C1775.91,-170 2943.62,-170 2943.62,-170 2943.62,-170 2943.62,-205.83 2943.62,-205.83"/>
<polygon fill="black" stroke="black" points="2940.13,-205.83 2943.62,-215.83 2947.13,-205.83 2940.13,-205.83"/>
</g>
<!-- TlButtonComponent  -->
<g id="node21" class="node">
<title>TlButtonComponent </title>
<polygon fill="#fb8072" stroke="black" points="2874.89,-252 2739.11,-252 2739.11,-216 2874.89,-216 2874.89,-252"/>
<text text-anchor="middle" x="2807" y="-229.8" font-family="Times,serif" font-size="14.00">TlButtonComponent </text>
</g>
<!-- TLSharedModule&#45;&gt;TlButtonComponent  -->
<g id="edge20" class="edge">
<title>TLSharedModule&#45;&gt;TlButtonComponent </title>
<path fill="none" stroke="black" stroke-dasharray="5,2" d="M1499.77,-172C1758.33,-172 2796.62,-172 2796.62,-172 2796.62,-172 2796.62,-205.73 2796.62,-205.73"/>
<polygon fill="black" stroke="black" points="2793.13,-205.73 2796.62,-215.73 2800.13,-205.73 2793.13,-205.73"/>
</g>
<!-- TlCardComponent  -->
<g id="node22" class="node">
<title>TlCardComponent </title>
<polygon fill="#fb8072" stroke="black" points="2721.49,-252 2596.51,-252 2596.51,-216 2721.49,-216 2721.49,-252"/>
<text text-anchor="middle" x="2659" y="-229.8" font-family="Times,serif" font-size="14.00">TlCardComponent </text>
</g>
<!-- TLSharedModule&#45;&gt;TlCardComponent  -->
<g id="edge21" class="edge">
<title>TLSharedModule&#45;&gt;TlCardComponent </title>
<path fill="none" stroke="black" stroke-dasharray="5,2" d="M1499.89,-174C1740.7,-174 2650.62,-174 2650.62,-174 2650.62,-174 2650.62,-206 2650.62,-206"/>
<polygon fill="black" stroke="black" points="2647.13,-206 2650.62,-216 2654.13,-206 2647.13,-206"/>
</g>
<!-- TlDropDownComponent  -->
<g id="node23" class="node">
<title>TlDropDownComponent </title>
<polygon fill="#fb8072" stroke="black" points="2579.26,-252 2418.74,-252 2418.74,-216 2579.26,-216 2579.26,-252"/>
<text text-anchor="middle" x="2499" y="-229.8" font-family="Times,serif" font-size="14.00">TlDropDownComponent </text>
</g>
<!-- TLSharedModule&#45;&gt;TlDropDownComponent  -->
<g id="edge22" class="edge">
<title>TLSharedModule&#45;&gt;TlDropDownComponent </title>
<path fill="none" stroke="black" stroke-dasharray="5,2" d="M1499.58,-176C1719.22,-176 2492.12,-176 2492.12,-176 2492.12,-176 2492.12,-205.97 2492.12,-205.97"/>
<polygon fill="black" stroke="black" points="2488.63,-205.97 2492.12,-215.97 2495.63,-205.97 2488.63,-205.97"/>
</g>
<!-- TlDropDownMenuComponent  -->
<g id="node24" class="node">
<title>TlDropDownMenuComponent </title>
<polygon fill="#fb8072" stroke="black" points="2400.42,-252 2207.58,-252 2207.58,-216 2400.42,-216 2400.42,-252"/>
<text text-anchor="middle" x="2304" y="-229.8" font-family="Times,serif" font-size="14.00">TlDropDownMenuComponent </text>
</g>
<!-- TLSharedModule&#45;&gt;TlDropDownMenuComponent  -->
<g id="edge23" class="edge">
<title>TLSharedModule&#45;&gt;TlDropDownMenuComponent </title>
<path fill="none" stroke="black" stroke-dasharray="5,2" d="M1499.8,-178C1687.6,-178 2268.6,-178 2268.6,-178 2268.6,-178 2268.6,-205.97 2268.6,-205.97"/>
<polygon fill="black" stroke="black" points="2265.1,-205.97 2268.6,-215.97 2272.1,-205.97 2265.1,-205.97"/>
</g>
<!-- TlDropDownMenuSectionComponent  -->
<g id="node25" class="node">
<title>TlDropDownMenuSectionComponent </title>
<polygon fill="#fb8072" stroke="black" points="2189.41,-252 1954.59,-252 1954.59,-216 2189.41,-216 2189.41,-252"/>
<text text-anchor="middle" x="2072" y="-229.8" font-family="Times,serif" font-size="14.00">TlDropDownMenuSectionComponent </text>
</g>
<!-- TLSharedModule&#45;&gt;TlDropDownMenuSectionComponent  -->
<g id="edge24" class="edge">
<title>TLSharedModule&#45;&gt;TlDropDownMenuSectionComponent </title>
<path fill="none" stroke="black" stroke-dasharray="5,2" d="M1499.54,-180C1647.73,-180 2030.93,-180 2030.93,-180 2030.93,-180 2030.93,-205.72 2030.93,-205.72"/>
<polygon fill="black" stroke="black" points="2027.43,-205.72 2030.93,-215.72 2034.43,-205.72 2027.43,-205.72"/>
</g>
<!-- TlFooterComponent  -->
<g id="node26" class="node">
<title>TlFooterComponent </title>
<polygon fill="#fb8072" stroke="black" points="1936.82,-252 1803.18,-252 1803.18,-216 1936.82,-216 1936.82,-252"/>
<text text-anchor="middle" x="1870" y="-229.8" font-family="Times,serif" font-size="14.00">TlFooterComponent </text>
</g>
<!-- TLSharedModule&#45;&gt;TlFooterComponent  -->
<g id="edge25" class="edge">
<title>TLSharedModule&#45;&gt;TlFooterComponent </title>
<path fill="none" stroke="black" stroke-dasharray="5,2" d="M1499.64,-182C1611.53,-182 1847.28,-182 1847.28,-182 1847.28,-182 1847.28,-205.81 1847.28,-205.81"/>
<polygon fill="black" stroke="black" points="1843.78,-205.81 1847.28,-215.81 1850.78,-205.81 1843.78,-205.81"/>
</g>
<!-- TlHeaderComponent  -->
<g id="node27" class="node">
<title>TlHeaderComponent </title>
<polygon fill="#fb8072" stroke="black" points="1784.69,-252 1647.31,-252 1647.31,-216 1784.69,-216 1784.69,-252"/>
<text text-anchor="middle" x="1716" y="-229.8" font-family="Times,serif" font-size="14.00">TlHeaderComponent </text>
</g>
<!-- TLSharedModule&#45;&gt;TlHeaderComponent  -->
<g id="edge26" class="edge">
<title>TLSharedModule&#45;&gt;TlHeaderComponent </title>
<path fill="none" stroke="black" stroke-dasharray="5,2" d="M1499.56,-184C1586.31,-184 1740.53,-184 1740.53,-184 1740.53,-184 1740.53,-205.95 1740.53,-205.95"/>
<polygon fill="black" stroke="black" points="1737.03,-205.95 1740.53,-215.95 1744.03,-205.95 1737.03,-205.95"/>
</g>
<!-- TlIconComponent  -->
<g id="node28" class="node">
<title>TlIconComponent </title>
<polygon fill="#fb8072" stroke="black" points="1629.15,-252 1506.85,-252 1506.85,-216 1629.15,-216 1629.15,-252"/>
<text text-anchor="middle" x="1568" y="-229.8" font-family="Times,serif" font-size="14.00">TlIconComponent </text>
</g>
<!-- TLSharedModule&#45;&gt;TlIconComponent  -->
<g id="edge27" class="edge">
<title>TLSharedModule&#45;&gt;TlIconComponent </title>
<path fill="none" stroke="black" stroke-dasharray="5,2" d="M1499.54,-186C1506.55,-186 1511.3,-186 1511.3,-186 1511.3,-186 1511.3,-205.85 1511.3,-205.85"/>
<polygon fill="black" stroke="black" points="1507.8,-205.85 1511.3,-215.85 1514.8,-205.85 1507.8,-205.85"/>
</g>
<!-- TlItWorksComponent  -->
<g id="node29" class="node">
<title>TlItWorksComponent </title>
<polygon fill="#fb8072" stroke="black" points="1488.65,-252 1345.35,-252 1345.35,-216 1488.65,-216 1488.65,-252"/>
<text text-anchor="middle" x="1417" y="-229.8" font-family="Times,serif" font-size="14.00">TlItWorksComponent </text>
</g>
<!-- TLSharedModule&#45;&gt;TlItWorksComponent  -->
<g id="edge28" class="edge">
<title>TLSharedModule&#45;&gt;TlItWorksComponent </title>
<path fill="none" stroke="black" stroke-dasharray="5,2" d="M1436.4,-187.11C1436.4,-187.11 1436.4,-205.99 1436.4,-205.99"/>
<polygon fill="black" stroke="black" points="1432.9,-205.99 1436.4,-215.99 1439.9,-205.99 1432.9,-205.99"/>
</g>
<!-- TlMegaMenuComponent  -->
<g id="node30" class="node">
<title>TlMegaMenuComponent </title>
<polygon fill="#fb8072" stroke="black" points="1327.81,-252 1166.19,-252 1166.19,-216 1327.81,-216 1327.81,-252"/>
<text text-anchor="middle" x="1247" y="-229.8" font-family="Times,serif" font-size="14.00">TlMegaMenuComponent </text>
</g>
<!-- TLSharedModule&#45;&gt;TlMegaMenuComponent  -->
<g id="edge29" class="edge">
<title>TLSharedModule&#45;&gt;TlMegaMenuComponent </title>
<path fill="none" stroke="black" stroke-dasharray="5,2" d="M1384.33,-185C1329.35,-185 1254.88,-185 1254.88,-185 1254.88,-185 1254.88,-205.75 1254.88,-205.75"/>
<polygon fill="black" stroke="black" points="1251.38,-205.75 1254.88,-215.75 1258.38,-205.75 1251.38,-205.75"/>
</g>
<!-- TlMegaMenuSectionComponent  -->
<g id="node31" class="node">
<title>TlMegaMenuSectionComponent </title>
<polygon fill="#fb8072" stroke="black" points="1147.8,-252 944.2,-252 944.2,-216 1147.8,-216 1147.8,-252"/>
<text text-anchor="middle" x="1046" y="-229.8" font-family="Times,serif" font-size="14.00">TlMegaMenuSectionComponent </text>
</g>
<!-- TLSharedModule&#45;&gt;TlMegaMenuSectionComponent  -->
<g id="edge30" class="edge">
<title>TLSharedModule&#45;&gt;TlMegaMenuSectionComponent </title>
<path fill="none" stroke="black" stroke-dasharray="5,2" d="M1384.19,-183C1276.48,-183 1055.88,-183 1055.88,-183 1055.88,-183 1055.88,-205.88 1055.88,-205.88"/>
<polygon fill="black" stroke="black" points="1052.38,-205.88 1055.88,-215.88 1059.38,-205.88 1052.38,-205.88"/>
</g>
<!-- TlModalComponent  -->
<g id="node32" class="node">
<title>TlModalComponent </title>
<polygon fill="#fb8072" stroke="black" points="925.83,-252 792.17,-252 792.17,-216 925.83,-216 925.83,-252"/>
<text text-anchor="middle" x="859" y="-229.8" font-family="Times,serif" font-size="14.00">TlModalComponent </text>
</g>
<!-- TLSharedModule&#45;&gt;TlModalComponent  -->
<g id="edge31" class="edge">
<title>TLSharedModule&#45;&gt;TlModalComponent </title>
<path fill="none" stroke="black" stroke-dasharray="5,2" d="M1384.36,-181C1239.35,-181 870.88,-181 870.88,-181 870.88,-181 870.88,-205.76 870.88,-205.76"/>
<polygon fill="black" stroke="black" points="867.38,-205.76 870.88,-215.76 874.38,-205.76 867.38,-205.76"/>
</g>
<!-- TlNavListComponent  -->
<g id="node33" class="node">
<title>TlNavListComponent </title>
<polygon fill="#fb8072" stroke="black" points="774.38,-252 631.62,-252 631.62,-216 774.38,-216 774.38,-252"/>
<text text-anchor="middle" x="703" y="-229.8" font-family="Times,serif" font-size="14.00">TlNavListComponent </text>
</g>
<!-- TLSharedModule&#45;&gt;TlNavListComponent  -->
<g id="edge32" class="edge">
<title>TLSharedModule&#45;&gt;TlNavListComponent </title>
<path fill="none" stroke="black" stroke-dasharray="5,2" d="M1384.45,-179C1212.83,-179 716.38,-179 716.38,-179 716.38,-179 716.38,-205.99 716.38,-205.99"/>
<polygon fill="black" stroke="black" points="712.88,-205.99 716.38,-215.99 719.88,-205.99 712.88,-205.99"/>
</g>
<!-- TlTabComponent  -->
<g id="node34" class="node">
<title>TlTabComponent </title>
<polygon fill="#fb8072" stroke="black" points="613.54,-252 494.46,-252 494.46,-216 613.54,-216 613.54,-252"/>
<text text-anchor="middle" x="554" y="-229.8" font-family="Times,serif" font-size="14.00">TlTabComponent </text>
</g>
<!-- TLSharedModule&#45;&gt;TlTabComponent  -->
<g id="edge33" class="edge">
<title>TLSharedModule&#45;&gt;TlTabComponent </title>
<path fill="none" stroke="black" stroke-dasharray="5,2" d="M1384.41,-177C1189.89,-177 569.38,-177 569.38,-177 569.38,-177 569.38,-205.96 569.38,-205.96"/>
<polygon fill="black" stroke="black" points="565.88,-205.96 569.38,-215.96 572.88,-205.96 565.88,-205.96"/>
</g>
<!-- TlTabsComponent  -->
<g id="node35" class="node">
<title>TlTabsComponent </title>
<polygon fill="#fb8072" stroke="black" points="476.49,-252 351.51,-252 351.51,-216 476.49,-216 476.49,-252"/>
<text text-anchor="middle" x="414" y="-229.8" font-family="Times,serif" font-size="14.00">TlTabsComponent </text>
</g>
<!-- TLSharedModule&#45;&gt;TlTabsComponent  -->
<g id="edge34" class="edge">
<title>TLSharedModule&#45;&gt;TlTabsComponent </title>
<path fill="none" stroke="black" stroke-dasharray="5,2" d="M1384.4,-175C1170.13,-175 431.38,-175 431.38,-175 431.38,-175 431.38,-205.98 431.38,-205.98"/>
<polygon fill="black" stroke="black" points="427.88,-205.98 431.38,-215.98 434.88,-205.98 427.88,-205.98"/>
</g>
<!-- TlThemesComponent  -->
<g id="node36" class="node">
<title>TlThemesComponent </title>
<polygon fill="#fb8072" stroke="black" points="333.59,-252 192.41,-252 192.41,-216 333.59,-216 333.59,-252"/>
<text text-anchor="middle" x="263" y="-229.8" font-family="Times,serif" font-size="14.00">TlThemesComponent </text>
</g>
<!-- TLSharedModule&#45;&gt;TlThemesComponent  -->
<g id="edge35" class="edge">
<title>TLSharedModule&#45;&gt;TlThemesComponent </title>
<path fill="none" stroke="black" stroke-dasharray="5,2" d="M1384.47,-173C1150.38,-173 281.88,-173 281.88,-173 281.88,-173 281.88,-205.7 281.88,-205.7"/>
<polygon fill="black" stroke="black" points="278.38,-205.7 281.88,-215.7 285.38,-205.7 278.38,-205.7"/>
</g>
<!-- TlWysiwygComponent  -->
<g id="node37" class="node">
<title>TlWysiwygComponent </title>
<polygon fill="#fb8072" stroke="black" points="174.43,-252 23.57,-252 23.57,-216 174.43,-216 174.43,-252"/>
<text text-anchor="middle" x="99" y="-229.8" font-family="Times,serif" font-size="14.00">TlWysiwygComponent </text>
</g>
<!-- TLSharedModule&#45;&gt;TlWysiwygComponent  -->
<g id="edge36" class="edge">
<title>TLSharedModule&#45;&gt;TlWysiwygComponent </title>
<path fill="none" stroke="black" stroke-dasharray="5,2" d="M1384.32,-171C1129.75,-171 119.38,-171 119.38,-171 119.38,-171 119.38,-205.78 119.38,-205.78"/>
<polygon fill="black" stroke="black" points="115.88,-205.78 119.38,-215.78 122.88,-205.78 115.88,-205.78"/>
</g>
</g>
</svg>
